<svg version="1.1" id="Layer_1" xmlns="http://www.w3.org/2000/svg" xmlns:xlink="http://www.w3.org/1999/xlink" x="0px" y="0px"
	 width="100%" viewBox="0 0 128 128" enable-background="new 0 0 128 128" xml:space="preserve">
<path fill="#FFFFFF" opacity="1.000000" stroke="none" 
	d="
M87.000000,129.000000 
	C58.000000,129.000000 29.500000,129.000000 1.000000,129.000000 
	C1.000000,86.333336 1.000000,43.666668 1.000000,1.000000 
	C43.666668,1.000000 86.333336,1.000000 129.000000,1.000000 
	C129.000000,43.666668 129.000000,86.333336 129.000000,129.000000 
	C115.166664,129.000000 101.333336,129.000000 87.000000,129.000000 
M106.888771,80.633125 
	C108.126373,77.306374 105.589241,78.040993 103.970741,78.022446 
	C98.707069,77.962120 93.442268,77.999870 87.998405,77.999870 
	C88.180588,77.005554 88.203552,76.512680 88.362045,76.068115 
	C95.058113,57.285927 81.471718,39.516060 59.847187,42.091160 
	C47.482952,43.563530 34.871487,59.927917 41.634426,76.823189 
	C39.768421,77.214508 37.914192,77.855972 36.033936,77.944473 
	C32.255077,78.122337 28.452024,77.832565 24.678455,78.059723 
	C22.301210,78.202835 20.983807,79.199890 24.289705,81.800591 
	C27.515453,81.821121 30.741201,81.841660 34.820789,82.027649 
	C36.555202,81.972130 38.289619,81.916603 40.841209,81.988655 
	C42.216236,81.946129 43.591263,81.903595 45.721020,82.026939 
	C46.487633,81.971306 47.254250,81.915672 48.497116,81.977440 
	C48.497116,81.977440 48.973133,81.859093 49.772594,82.026657 
	C50.855843,81.971573 51.939095,81.916496 53.662025,81.991852 
	C54.143421,81.672424 54.624817,81.352997 55.778397,80.754478 
	C57.028973,80.407677 58.279552,80.060883 59.993206,79.585663 
	C56.550575,85.837257 51.874969,87.807976 45.618271,87.078888 
	C41.841034,86.638733 37.958008,86.826424 34.150017,87.106255 
	C33.052265,87.186920 32.050007,88.567032 31.003965,89.351387 
	C31.952059,90.233315 32.917393,91.898132 33.845612,91.877701 
	C44.739491,91.637833 56.802437,95.255516 64.405273,83.271248 
	C64.523621,83.084702 65.008202,83.130501 65.823669,82.967690 
	C67.090034,84.359940 68.378120,86.158989 70.035675,87.502060 
	C72.136688,89.204475 74.436691,91.593613 76.829323,91.822670 
	C83.096390,92.422630 89.466553,92.152519 95.780640,91.880814 
	C97.047020,91.826317 98.247055,90.229843 99.477676,89.344345 
	C99.220428,88.895554 98.963173,88.446762 98.705917,87.997971 
	C94.232086,87.997971 89.670456,87.438591 85.304214,88.123985 
	C78.049263,89.262833 73.840393,85.629204 69.851608,79.381897 
	C71.992737,80.083084 73.444481,80.558510 75.309860,81.808708 
	C79.528671,81.825676 83.747482,81.842644 88.849251,82.024963 
	C91.240547,81.970230 93.631851,81.915489 96.910095,81.990074 
	C99.980965,81.672600 103.051826,81.355125 106.888771,80.633125 
M79.472031,102.008247 
	C82.628258,102.006676 85.818611,102.271881 88.924202,101.874527 
	C90.197639,101.711601 91.288109,100.118500 92.461807,99.175980 
	C92.168777,98.871330 91.875748,98.566689 91.582726,98.262039 
	C73.748505,98.262039 55.914291,98.262039 38.080074,98.262039 
	C37.895130,98.826622 37.710186,99.391197 37.525242,99.955780 
	C39.216770,100.639854 40.900112,101.892220 42.601139,101.916710 
	C54.559105,102.088928 66.520714,102.008163 79.472031,102.008247 
M50.710995,37.146191 
	C49.725163,35.504452 48.630337,33.917145 47.777325,32.209076 
	C46.238621,29.127972 44.365406,29.298550 41.977928,31.513556 
	C43.570057,34.124012 45.048317,36.805859 46.807953,39.288250 
	C47.397526,40.119984 48.704685,40.443054 49.683842,40.998634 
	C50.119930,39.971497 50.556023,38.944359 50.710995,37.146191 
M84.509056,30.008450 
	C80.939728,32.672935 79.164406,36.208855 78.885803,42.257957 
	C81.069061,40.724117 82.639885,40.145687 83.337448,39.024124 
	C84.923035,36.474777 86.079468,33.658520 87.410324,30.950748 
	C86.702324,30.638721 85.994331,30.326693 84.509056,30.008450 
M36.691784,52.980843 
	C37.599567,52.345642 38.855759,51.881420 39.283173,51.010475 
	C39.535572,50.496151 38.694199,49.003803 37.967358,48.529301 
	C35.325066,46.804352 32.523617,45.323185 29.782188,43.750088 
	C29.289965,43.973118 28.797741,44.196144 28.305515,44.419174 
	C28.781586,45.969730 28.804125,48.016396 29.835630,48.959366 
	C31.561203,50.536831 33.930901,51.409687 36.691784,52.980843 
M97.954430,50.607723 
	C99.663666,48.741787 104.618820,47.993736 100.299217,43.878513 
	C98.466881,44.756466 96.497215,45.283142 95.098778,46.478241 
	C93.435425,47.899727 90.720474,50.662895 91.142265,51.510441 
	C93.050331,55.344505 95.110550,50.836746 97.954430,50.607723 
M98.656929,65.003227 
	C95.491615,64.700798 93.848274,65.474289 95.702400,68.864487 
	C107.449646,69.393982 107.449646,69.393982 107.481697,65.003548 
	C104.851730,65.003548 102.220055,65.003548 98.656929,65.003227 
M31.295563,69.018700 
	C34.679214,68.501511 34.679214,68.501511 34.454876,65.209358 
	C30.351326,65.209358 26.247776,65.209358 22.144226,65.209358 
	C21.909473,65.648163 21.674721,66.086967 21.439970,66.525772 
	C22.760885,67.356750 23.987923,68.535255 25.428211,68.924332 
	C26.975266,69.342255 28.722618,69.018715 31.295563,69.018700 
M67.003349,27.685049 
	C67.192299,23.910040 65.126099,24.861475 62.995438,25.516041 
	C62.995438,28.466114 62.796288,31.149244 63.088657,33.777702 
	C63.214211,34.906437 64.360489,35.921635 65.043022,36.988415 
	C65.697197,35.863941 66.677704,34.806271 66.924934,33.598499 
	C67.251770,32.001766 67.004318,30.287483 67.003349,27.685049 
z"/>
<path fill="#261916" opacity="1.000000" stroke="none" 
	d="
M48.020863,81.860039 
	C47.254250,81.915672 46.487633,81.971306 45.106964,81.697754 
	C43.003281,81.532745 41.513657,81.696915 40.024033,81.861084 
	C38.289619,81.916603 36.555202,81.972130 34.092056,81.675354 
	C30.203991,81.226982 27.044662,81.130898 23.885334,81.034821 
	C20.983807,79.199890 22.301210,78.202835 24.678455,78.059723 
	C28.452024,77.832565 32.255077,78.122337 36.033936,77.944473 
	C37.914192,77.855972 39.768421,77.214508 42.078079,76.447922 
	C43.693569,76.017616 44.865402,75.962578 46.381927,76.132233 
	C50.205578,77.305527 53.726788,79.154549 57.153690,78.993729 
	C62.421158,78.746559 67.595413,78.708389 72.865265,79.024811 
	C76.191277,79.224525 79.618706,77.735001 82.825508,77.263908 
	C81.766243,78.673859 80.882118,79.823097 79.572937,80.980255 
	C77.730667,81.003426 76.313446,81.018684 74.896217,81.033936 
	C73.444481,80.558510 71.992737,80.083084 69.851608,79.381897 
	C73.840393,85.629204 78.049263,89.262833 85.304214,88.123985 
	C89.670456,87.438591 94.232086,87.997971 98.705917,87.997971 
	C98.963173,88.446762 99.220428,88.895554 99.477676,89.344345 
	C98.247055,90.229843 97.047020,91.826317 95.780640,91.880814 
	C89.466553,92.152519 83.096390,92.422630 76.829323,91.822670 
	C74.436691,91.593613 72.136688,89.204475 70.035675,87.502060 
	C68.378120,86.158989 67.090034,84.359940 65.823669,82.967690 
	C65.008202,83.130501 64.523621,83.084702 64.405273,83.271248 
	C56.802437,95.255516 44.739491,91.637833 33.845612,91.877701 
	C32.917393,91.898132 31.952059,90.233315 31.003965,89.351387 
	C32.050007,88.567032 33.052265,87.186920 34.150017,87.106255 
	C37.958008,86.826424 41.841034,86.638733 45.618271,87.078888 
	C51.874969,87.807976 56.550575,85.837257 59.993206,79.585663 
	C58.279552,80.060883 57.028973,80.407677 55.144157,80.897110 
	C54.014057,81.313637 53.518200,81.587532 53.022343,81.861420 
	C51.939095,81.916496 50.855843,81.971573 49.287994,81.789673 
	C48.542549,81.655136 48.281704,81.757584 48.020863,81.860039 
z"/>
<path fill="#241914" opacity="1.000000" stroke="none" 
	d="
M46.037235,75.907539 
	C44.865402,75.962578 43.693569,76.017616 42.181946,76.064178 
	C34.871487,59.927917 47.482952,43.563530 59.847187,42.091160 
	C81.471718,39.516060 95.058113,57.285927 88.362045,76.068115 
	C88.203552,76.512680 88.180588,77.005554 87.998405,77.999870 
	C93.442268,77.999870 98.707069,77.962120 103.970741,78.022446 
	C105.589241,78.040993 108.126373,77.306374 106.053711,80.822861 
	C102.153488,81.295319 99.088318,81.578033 96.023148,81.860748 
	C93.631851,81.915489 91.240547,81.970230 88.115891,81.677528 
	C84.921013,81.210838 82.459503,81.091583 79.997986,80.972336 
	C80.882118,79.823097 81.766243,78.673859 82.959450,76.916191 
	C87.634857,66.645859 85.906448,57.476803 78.501198,51.017483 
	C71.483475,44.896183 61.430939,44.251984 53.540558,49.417931 
	C45.217739,54.867001 42.681873,63.819584 46.037235,75.907539 
z"/>
<path fill="#211714" opacity="1.000000" stroke="none" 
	d="
M78.976593,102.008247 
	C66.520714,102.008163 54.559105,102.088928 42.601139,101.916710 
	C40.900112,101.892220 39.216770,100.639854 37.525242,99.955780 
	C37.710186,99.391197 37.895130,98.826622 38.080074,98.262039 
	C55.914291,98.262039 73.748505,98.262039 91.582726,98.262039 
	C91.875748,98.566689 92.168777,98.871330 92.461807,99.175980 
	C91.288109,100.118500 90.197639,101.711601 88.924202,101.874527 
	C85.818611,102.271881 82.628258,102.006676 78.976593,102.008247 
z"/>
<path fill="#1D1412" opacity="1.000000" stroke="none" 
	d="
M50.851555,37.531708 
	C50.556023,38.944359 50.119930,39.971497 49.683842,40.998634 
	C48.704685,40.443054 47.397526,40.119984 46.807953,39.288250 
	C45.048317,36.805859 43.570057,34.124012 41.977928,31.513556 
	C44.365406,29.298550 46.238621,29.127972 47.777325,32.209076 
	C48.630337,33.917145 49.725163,35.504452 50.851555,37.531708 
z"/>
<path fill="#1D1411" opacity="1.000000" stroke="none" 
	d="
M84.897690,30.011557 
	C85.994331,30.326693 86.702324,30.638721 87.410324,30.950748 
	C86.079468,33.658520 84.923035,36.474777 83.337448,39.024124 
	C82.639885,40.145687 81.069061,40.724117 78.885803,42.257957 
	C79.164406,36.208855 80.939728,32.672935 84.897690,30.011557 
z"/>
<path fill="#1D1413" opacity="1.000000" stroke="none" 
	d="
M36.360634,52.779976 
	C33.930901,51.409687 31.561203,50.536831 29.835630,48.959366 
	C28.804125,48.016396 28.781586,45.969730 28.305515,44.419174 
	C28.797741,44.196144 29.289965,43.973118 29.782188,43.750088 
	C32.523617,45.323185 35.325066,46.804352 37.967358,48.529301 
	C38.694199,49.003803 39.535572,50.496151 39.283173,51.010475 
	C38.855759,51.881420 37.599567,52.345642 36.360634,52.779976 
z"/>
<path fill="#1D1412" opacity="1.000000" stroke="none" 
	d="
M97.619110,50.801628 
	C95.110550,50.836746 93.050331,55.344505 91.142265,51.510441 
	C90.720474,50.662895 93.435425,47.899727 95.098778,46.478241 
	C96.497215,45.283142 98.466881,44.756466 100.299217,43.878513 
	C104.618820,47.993736 99.663666,48.741787 97.619110,50.801628 
z"/>
<path fill="#211715" opacity="1.000000" stroke="none" 
	d="
M99.122658,65.003387 
	C102.220055,65.003548 104.851730,65.003548 107.481697,65.003548 
	C107.449646,69.393982 107.449646,69.393982 95.702400,68.864487 
	C93.848274,65.474289 95.491615,64.700798 99.122658,65.003387 
z"/>
<path fill="#221816" opacity="1.000000" stroke="none" 
	d="
M30.839066,69.018707 
	C28.722618,69.018715 26.975266,69.342255 25.428211,68.924332 
	C23.987923,68.535255 22.760885,67.356750 21.439970,66.525772 
	C21.674721,66.086967 21.909473,65.648163 22.144226,65.209358 
	C26.247776,65.209358 30.351326,65.209358 34.456741,65.215088 
	C34.679214,68.501511 34.679214,68.501511 30.839066,69.018707 
z"/>
<path fill="#231816" opacity="1.000000" stroke="none" 
	d="
M67.003532,28.154388 
	C67.004318,30.287483 67.251770,32.001766 66.924934,33.598499 
	C66.677704,34.806271 65.697197,35.863941 65.043022,36.988415 
	C64.360489,35.921635 63.214211,34.906437 63.088657,33.777702 
	C62.796288,31.149244 62.995438,28.466114 62.995438,25.516041 
	C65.126099,24.861475 67.192299,23.910040 67.003532,28.154388 
z"/>
<path fill="#0A0505" opacity="1.000000" stroke="none" 
	d="
M79.572937,80.980255 
	C82.459503,81.091583 84.921013,81.210838 87.674408,81.594849 
	C83.747482,81.842644 79.528671,81.825676 75.103043,81.421326 
	C76.313446,81.018684 77.730667,81.003426 79.572937,80.980255 
z"/>
<path fill="#0A0505" opacity="1.000000" stroke="none" 
	d="
M24.087521,81.417709 
	C27.044662,81.130898 30.203991,81.226982 33.665134,81.592628 
	C30.741201,81.841660 27.515453,81.821121 24.087521,81.417709 
z"/>
<path fill="#0A0505" opacity="1.000000" stroke="none" 
	d="
M96.466621,81.925415 
	C99.088318,81.578033 102.153488,81.295319 105.670677,81.025131 
	C103.051826,81.355125 99.980965,81.672600 96.466621,81.925415 
z"/>
<path fill="#0A0505" opacity="1.000000" stroke="none" 
	d="
M40.432621,81.924866 
	C41.513657,81.696915 43.003281,81.532745 44.729599,81.614822 
	C43.591263,81.903595 42.216236,81.946129 40.432621,81.924866 
z"/>
<path fill="#0A0505" opacity="1.000000" stroke="none" 
	d="
M53.342186,81.926636 
	C53.518200,81.587532 54.014057,81.313637 54.808064,81.036652 
	C54.624817,81.352997 54.143421,81.672424 53.342186,81.926636 
z"/>
<path fill="#0A0505" opacity="1.000000" stroke="none" 
	d="
M48.258987,81.918739 
	C48.281704,81.757584 48.542549,81.655136 48.888260,81.705887 
	C48.973133,81.859093 48.497116,81.977440 48.258987,81.918739 
z"/>
<path fill="#F5B52C" opacity="1.000000" stroke="none" 
	d="
M46.381927,76.132233 
	C42.681873,63.819584 45.217739,54.867001 53.540558,49.417931 
	C61.430939,44.251984 71.483475,44.896183 78.501198,51.017483 
	C85.906448,57.476803 87.634857,66.645859 83.134590,76.655479 
	C79.618706,77.735001 76.191277,79.224525 72.865265,79.024811 
	C67.595413,78.708389 62.421158,78.746559 57.153690,78.993729 
	C53.726788,79.154549 50.205578,77.305527 46.381927,76.132233 
z"/>
</svg>